<svg style="object-fit:cover" id="my-svg" version="1" baseProfile="full" width="100%" height="100%" viewBox="0 0 1366 625" xmlns="http://www.w3.org/2000/svg">
   <path transform="scale(-1, 1)" d="M 0,625 V 0,312 C 54.641629847815395,336.2472385861561 109.28325969563079,360.4944771723122 160,353 C 210.7167403043692,345.5055228276878 257.50859106529214,306.26932989690727 327,290 C 396.49140893470786,273.73067010309273 488.68237604320086,280.4282032400589 543,303 C 597.3176239567991,325.5717967599411 613.7619047619048,364.01785714285717 657,352 C 700.2380952380952,339.98214285714283 770.2700049091801,277.50036818851254 839,281 C 907.7299950908199,284.49963181148746 975.1580756013745,353.98067010309273 1040,376 C 1104.8419243986255,398.01932989690727 1167.0976926853216,372.57695139911635 1221,354 C 1274.9023073146784,335.42304860088365 1320.451153657339,323.71152430044185 1366,312 C 1366,312 1366,625 1366,625 Z" stroke="none" stroke-width="0" fill="#c360fcff" class="transition-all duration-300 ease-in-out delay-150" style="transform-origin: center center;"/>
</svg>