<svg style="object-fit:cover" id="my-svg" version="1" baseProfile="full" width="100%" height="100%" viewBox="0 0 1366 625" xmlns="http://www.w3.org/2000/svg">
<path transform="scale(-1, 1)" d="M 0,625 V 0,375 C 65.04737358861068,411.1840942562592 130.09474717722136,447.36818851251843 185,467 C 239.90525282277864,486.63181148748157 284.6683848797251,489.7113402061855 341,475 C 397.3316151202749,460.2886597938145 465.2317133038782,427.78645066273936 520,391 C 574.7682866961218,354.21354933726064 616.4047619047619,313.1428571428571 678,309 C 739.5952380952381,304.8571428571429 821.1492390770741,337.64212076583215 883,334 C 944.8507609229259,330.35787923416785 986.9982817869418,290.2886597938144 1029,268 C 1071.0017182130582,245.71134020618558 1112.8576337751595,241.20324005891018 1169,262 C 1225.1423662248405,282.7967599410898 1295.5711831124204,328.8983799705449 1366,375 C 1366,375 1366,625 1366,625 Z" stroke="none" stroke-width="0" fill="#c360fcff" class="transition-all duration-300 ease-in-out delay-150" style="transform-origin: center center;"/></svg>