<?xml version="1.0" standalone="no"?>
<svg xmlns:xlink="http://www.w3.org/1999/xlink" id="wave" style="transform:rotate(0deg); transition: 0.3s" viewBox="0 0 1440 160" version="1.1" xmlns="http://www.w3.org/2000/svg"><defs><linearGradient id="sw-gradient-0" x1="0" x2="0" y1="1" y2="0"><stop stop-color="rgba(243, 106, 62, 1)" offset="0%"/><stop stop-color="rgba(255, 179, 11, 1)" offset="100%"/></linearGradient></defs><path style="transform:translate(0, 0px); opacity:1" fill="url(#sw-gradient-0)" d="M0,96L48,82.7C96,69,192,43,288,26.7C384,11,480,5,576,10.7C672,16,768,32,864,53.3C960,75,1056,101,1152,96C1248,91,1344,53,1440,48C1536,43,1632,69,1728,74.7C1824,80,1920,64,2016,69.3C2112,75,2208,101,2304,93.3C2400,85,2496,43,2592,42.7C2688,43,2784,85,2880,96C2976,107,3072,85,3168,72C3264,59,3360,53,3456,48C3552,43,3648,37,3744,34.7C3840,32,3936,32,4032,50.7C4128,69,4224,107,4320,109.3C4416,112,4512,80,4608,80C4704,80,4800,112,4896,104C4992,96,5088,48,5184,40C5280,32,5376,64,5472,69.3C5568,75,5664,53,5760,56C5856,59,5952,85,6048,85.3C6144,85,6240,59,6336,40C6432,21,6528,11,6624,5.3C6720,0,6816,0,6864,0L6912,0L6912,160L6864,160C6816,160,6720,160,6624,160C6528,160,6432,160,6336,160C6240,160,6144,160,6048,160C5952,160,5856,160,5760,160C5664,160,5568,160,5472,160C5376,160,5280,160,5184,160C5088,160,4992,160,4896,160C4800,160,4704,160,4608,160C4512,160,4416,160,4320,160C4224,160,4128,160,4032,160C3936,160,3840,160,3744,160C3648,160,3552,160,3456,160C3360,160,3264,160,3168,160C3072,160,2976,160,2880,160C2784,160,2688,160,2592,160C2496,160,2400,160,2304,160C2208,160,2112,160,2016,160C1920,160,1824,160,1728,160C1632,160,1536,160,1440,160C1344,160,1248,160,1152,160C1056,160,960,160,864,160C768,160,672,160,576,160C480,160,384,160,288,160C192,160,96,160,48,160L0,160Z"/></svg>