<?xml version="1.0" standalone="no"?>
<svg xmlns:xlink="http://www.w3.org/1999/xlink" id="wave" style="transform:rotate(0deg); transition: 0.3s" viewBox="0 0 1440 330" version="1.1" xmlns="http://www.w3.org/2000/svg"><defs><linearGradient id="sw-gradient-0" x1="0" x2="0" y1="1" y2="0"><stop stop-color="rgba(243, 106, 62, 1)" offset="0%"/><stop stop-color="rgba(255, 179, 11, 1)" offset="100%"/></linearGradient></defs><path style="transform:translate(0, 0px); opacity:1" fill="url(#sw-gradient-0)" d="M0,198L48,170.5C96,143,192,88,288,55C384,22,480,11,576,22C672,33,768,66,864,110C960,154,1056,209,1152,198C1248,187,1344,110,1440,99C1536,88,1632,143,1728,154C1824,165,1920,132,2016,143C2112,154,2208,209,2304,192.5C2400,176,2496,88,2592,88C2688,88,2784,176,2880,198C2976,220,3072,176,3168,148.5C3264,121,3360,110,3456,99C3552,88,3648,77,3744,71.5C3840,66,3936,66,4032,104.5C4128,143,4224,220,4320,225.5C4416,231,4512,165,4608,165C4704,165,4800,231,4896,214.5C4992,198,5088,99,5184,82.5C5280,66,5376,132,5472,143C5568,154,5664,110,5760,115.5C5856,121,5952,176,6048,176C6144,176,6240,121,6336,82.5C6432,44,6528,22,6624,11C6720,0,6816,0,6864,0L6912,0L6912,330L6864,330C6816,330,6720,330,6624,330C6528,330,6432,330,6336,330C6240,330,6144,330,6048,330C5952,330,5856,330,5760,330C5664,330,5568,330,5472,330C5376,330,5280,330,5184,330C5088,330,4992,330,4896,330C4800,330,4704,330,4608,330C4512,330,4416,330,4320,330C4224,330,4128,330,4032,330C3936,330,3840,330,3744,330C3648,330,3552,330,3456,330C3360,330,3264,330,3168,330C3072,330,2976,330,2880,330C2784,330,2688,330,2592,330C2496,330,2400,330,2304,330C2208,330,2112,330,2016,330C1920,330,1824,330,1728,330C1632,330,1536,330,1440,330C1344,330,1248,330,1152,330C1056,330,960,330,864,330C768,330,672,330,576,330C480,330,384,330,288,330C192,330,96,330,48,330L0,330Z"/></svg>