<!--?xml version="1.0" standalone="no"?-->
              <svg id="sw-js-blob-svg" viewBox="0 0 100 100" xmlns="http://www.w3.org/2000/svg" version="1.1">
                    <defs> 
                        <linearGradient id="sw-gradient" x1="0" x2="1" y1="1" y2="0">
                            <stop id="stop1" stop-color="rgba(248, 117, 55, 1)" offset="0%"></stop>
                            <stop id="stop2" stop-color="rgba(251, 168, 31, 1)" offset="100%"></stop>
                        </linearGradient>
                    </defs>
                <path fill="url(#sw-gradient)" d="M23,-36.4C29.2,-31.8,33.2,-24.4,34,-17.1C34.8,-9.9,32.4,-2.8,31.8,4.9C31.3,12.7,32.6,21,28.9,24.9C25.3,28.9,16.8,28.5,9.3,29.7C1.9,31,-4.5,34,-11.2,34C-17.9,33.9,-24.9,30.8,-31,25.7C-37.1,20.7,-42.4,13.8,-42.9,6.5C-43.5,-0.8,-39.3,-8.4,-35.2,-15.6C-31.2,-22.9,-27.4,-29.7,-21.5,-34.5C-15.7,-39.3,-7.8,-42,0.3,-42.4C8.4,-42.8,16.8,-41,23,-36.4Z" width="100%" height="100%" transform="translate(50 50)" stroke-width="0" style="transition: all 0.3s ease 0s;"></path>
              </svg>