<?xml version="1.0" standalone="no"?>
<svg xmlns:xlink="http://www.w3.org/1999/xlink" id="wave" style="transform:rotate(180deg); transition: 0.3s" viewBox="0 0 1440 490" version="1.1" xmlns="http://www.w3.org/2000/svg"><defs><linearGradient id="sw-gradient-0" x1="0" x2="0" y1="1" y2="0"><stop stop-color="rgba(255, 255, 255, 1)" offset="0%"/><stop stop-color="rgba(171.186, 171.186, 171.186, 1)" offset="100%"/></linearGradient></defs><path style="transform:translate(0, 0px); opacity:1" fill="url(#sw-gradient-0)" d="M0,196L60,187.8C120,180,240,163,360,187.8C480,212,600,278,720,318.5C840,359,960,376,1080,326.7C1200,278,1320,163,1440,147C1560,131,1680,212,1800,269.5C1920,327,2040,359,2160,334.8C2280,310,2400,229,2520,228.7C2640,229,2760,310,2880,285.8C3000,261,3120,131,3240,114.3C3360,98,3480,196,3600,236.8C3720,278,3840,261,3960,245C4080,229,4200,212,4320,204.2C4440,196,4560,196,4680,179.7C4800,163,4920,131,5040,155.2C5160,180,5280,261,5400,318.5C5520,376,5640,408,5760,392C5880,376,6000,310,6120,310.3C6240,310,6360,376,6480,334.8C6600,294,6720,147,6840,89.8C6960,33,7080,65,7200,73.5C7320,82,7440,65,7560,57.2C7680,49,7800,49,7920,73.5C8040,98,8160,147,8280,147C8400,147,8520,98,8580,73.5L8640,49L8640,490L8580,490C8520,490,8400,490,8280,490C8160,490,8040,490,7920,490C7800,490,7680,490,7560,490C7440,490,7320,490,7200,490C7080,490,6960,490,6840,490C6720,490,6600,490,6480,490C6360,490,6240,490,6120,490C6000,490,5880,490,5760,490C5640,490,5520,490,5400,490C5280,490,5160,490,5040,490C4920,490,4800,490,4680,490C4560,490,4440,490,4320,490C4200,490,4080,490,3960,490C3840,490,3720,490,3600,490C3480,490,3360,490,3240,490C3120,490,3000,490,2880,490C2760,490,2640,490,2520,490C2400,490,2280,490,2160,490C2040,490,1920,490,1800,490C1680,490,1560,490,1440,490C1320,490,1200,490,1080,490C960,490,840,490,720,490C600,490,480,490,360,490C240,490,120,490,60,490L0,490Z"/></svg>